<?xml version="1.0" encoding="utf-8"?>
<!-- Generator: Adobe Illustrator 22.0.0, SVG Export Plug-In . SVG Version: 6.00 Build 0)  -->
<svg version="1.1" xmlns="http://www.w3.org/2000/svg" xmlns:xlink="http://www.w3.org/1999/xlink" x="0px" y="0px"
	 viewBox="0 0 256 256" style="enable-background:new 0 0 256 256;" xml:space="preserve">
<style type="text/css">
	.st0{display:none;}
	.st1{display:inline;}
	.st2{fill:none;stroke:#6B1D1D;stroke-width:0.5;stroke-miterlimit:10;}
	.st3{fill:#3A312A;}
	.st4{fill:#87796F;}
	.st5{fill:#D5DE58;}
	.st6{fill:#695B51;}
	.st7{fill:#FCE8CB;}
	.st8{fill:#F16C7A;}
	.st9{fill:#8AC6DD;}
	.st10{fill:#DECAAD;}
	.st11{fill:#D6DF58;}
	.st12{fill-rule:evenodd;clip-rule:evenodd;fill:#FCE8CB;}
	.st13{fill:#F5978A;}
	.st14{fill:#D7E057;}
	.st15{fill-rule:evenodd;clip-rule:evenodd;fill:#87796F;}
	.st16{fill:#6CA8BF;}
	.st17{fill:#B9C239;}
	.st18{fill:#D34E5C;}
	.st19{fill:#FAE6CA;}
	.st20{fill:#F8E4C8;}
	.st21{fill:#8AC5DC;}
	.st22{fill:#EF6D7A;}
	.st23{fill:#EB6E7A;}
	.st24{fill:#89C4DB;}
	.st25{fill-rule:evenodd;clip-rule:evenodd;fill:#F16C7A;}
	.st26{fill:#F7E3C7;}
	.st27{fill:#F6E2C6;}
	.st28{fill:#ED6E7A;}
	.st29{fill:#8AC3DA;}
	.st30{fill:#D5DC57;}
	.st31{fill-rule:evenodd;clip-rule:evenodd;fill:#D7E057;}
	.st32{fill-rule:evenodd;clip-rule:evenodd;fill:#F8E4C8;}
	.st33{fill:#D4DB56;}
	.st34{fill:#F59689;}
	.st35{fill:#DDC9AC;}
	.st36{fill:#D24E5C;}
	.st37{fill:#6A5C52;}
	.st38{fill:#6CA6BE;}
	.st39{fill:#B8C136;}
	.st40{fill-rule:evenodd;clip-rule:evenodd;fill:#FAE6CA;}
</style>
<g id="Layer_2" class="st0">
	<g class="st1">
		<g>
			<line class="st2" x1="0" y1="4.829" x2="256" y2="4.829"/>
			<line class="st2" x1="0" y1="16.56" x2="256" y2="16.56"/>
			<line class="st2" x1="0" y1="28.29" x2="256" y2="28.29"/>
			<line class="st2" x1="0" y1="40.021" x2="256" y2="40.021"/>
			<line class="st2" x1="0" y1="51.751" x2="256" y2="51.751"/>
			<line class="st2" x1="0" y1="63.482" x2="256" y2="63.482"/>
			<line class="st2" x1="0" y1="75.213" x2="256" y2="75.213"/>
			<line class="st2" x1="0" y1="86.943" x2="256" y2="86.943"/>
			<line class="st2" x1="0" y1="98.674" x2="256" y2="98.674"/>
			<line class="st2" x1="0" y1="110.404" x2="256" y2="110.404"/>
			<line class="st2" x1="0" y1="122.135" x2="256" y2="122.135"/>
			<line class="st2" x1="0" y1="133.865" x2="256" y2="133.865"/>
			<line class="st2" x1="0" y1="145.596" x2="256" y2="145.596"/>
			<line class="st2" x1="0" y1="157.326" x2="256" y2="157.326"/>
			<line class="st2" x1="0" y1="169.057" x2="256" y2="169.057"/>
			<line class="st2" x1="0" y1="180.788" x2="256" y2="180.788"/>
			<line class="st2" x1="0" y1="192.518" x2="256" y2="192.518"/>
			<line class="st2" x1="0" y1="204.249" x2="256" y2="204.249"/>
			<line class="st2" x1="0" y1="215.979" x2="256" y2="215.979"/>
			<line class="st2" x1="0" y1="227.71" x2="256" y2="227.71"/>
			<line class="st2" x1="0" y1="239.44" x2="256" y2="239.44"/>
			<line class="st2" x1="0" y1="251.171" x2="256" y2="251.171"/>
		</g>
		<g>
			<line class="st2" x1="251.171" y1="0" x2="251.171" y2="256"/>
			<line class="st2" x1="239.44" y1="0" x2="239.44" y2="256"/>
			<line class="st2" x1="227.71" y1="0" x2="227.71" y2="256"/>
			<line class="st2" x1="215.979" y1="0" x2="215.979" y2="256"/>
			<line class="st2" x1="204.249" y1="0" x2="204.249" y2="256"/>
			<line class="st2" x1="192.518" y1="0" x2="192.518" y2="256"/>
			<line class="st2" x1="180.788" y1="0" x2="180.788" y2="256"/>
			<line class="st2" x1="169.057" y1="0" x2="169.057" y2="256"/>
			<line class="st2" x1="157.326" y1="0" x2="157.326" y2="256"/>
			<line class="st2" x1="145.596" y1="0" x2="145.596" y2="256"/>
			<line class="st2" x1="133.865" y1="0" x2="133.865" y2="256"/>
			<line class="st2" x1="122.135" y1="0" x2="122.135" y2="256"/>
			<line class="st2" x1="110.404" y1="0" x2="110.404" y2="256"/>
			<line class="st2" x1="98.674" y1="0" x2="98.674" y2="256"/>
			<line class="st2" x1="86.943" y1="0" x2="86.943" y2="256"/>
			<line class="st2" x1="75.213" y1="0" x2="75.213" y2="256"/>
			<line class="st2" x1="63.482" y1="0" x2="63.482" y2="256"/>
			<line class="st2" x1="51.751" y1="0" x2="51.751" y2="256"/>
			<line class="st2" x1="40.021" y1="0" x2="40.021" y2="256"/>
			<line class="st2" x1="28.29" y1="0" x2="28.29" y2="256"/>
			<line class="st2" x1="16.56" y1="0" x2="16.56" y2="256"/>
			<line class="st2" x1="4.829" y1="0" x2="4.829" y2="256"/>
		</g>
	</g>
</g>
<g id="Layer_1">
	<g>
		<path class="st14" d="M47.735,26.195c0,0,3.408,12.659,13.222,13.246c0,0-13.1,4.525-13.321,14.202
			c0,0-2.578-13.572-12.925-14.059C34.71,39.584,46.761,37.758,47.735,26.195z"/>
		<path class="st3" d="M47.635,55.142c-0.713,0-1.335-0.506-1.473-1.217c-0.023-0.124-2.494-12.417-11.522-12.842
			c-0.771-0.037-1.388-0.651-1.428-1.421c-0.04-0.771,0.511-1.445,1.273-1.561c0.441-0.069,10.894-1.817,11.754-12.033
			c0.062-0.725,0.635-1.301,1.359-1.367c0.733-0.059,1.394,0.399,1.584,1.101c0.031,0.116,3.259,11.626,11.863,12.141
			c0.714,0.043,1.298,0.584,1.396,1.292c0.098,0.708-0.318,1.388-0.994,1.623c-0.121,0.042-12.119,4.31-12.312,12.819
			c-0.018,0.767-0.61,1.396-1.375,1.459C47.719,55.141,47.677,55.142,47.635,55.142z M39.894,39.413
			c3.878,1.969,6.23,5.746,7.587,8.876c2.026-4.021,5.941-6.787,8.949-8.427c-4.135-1.842-6.783-5.652-8.334-8.723
			C46.303,35.5,42.824,38.008,39.894,39.413z"/>
		<path class="st14" d="M26.036,43.175c0,0,2.411,8.954,9.352,9.369c0,0-9.266,3.201-9.422,10.045c0,0-1.824-9.6-9.142-9.944
			C16.824,52.646,25.347,51.354,26.036,43.175z"/>
		<path class="st3" d="M25.965,64.09c-0.714,0-1.337-0.507-1.473-1.22c-0.016-0.082-1.703-8.442-7.738-8.726
			c-0.771-0.037-1.388-0.651-1.428-1.421c-0.04-0.771,0.511-1.445,1.273-1.561c0.296-0.047,7.363-1.243,7.941-8.114
			c0.062-0.726,0.636-1.303,1.361-1.368c0.723-0.061,1.392,0.399,1.581,1.101l0,0c0.022,0.079,2.229,7.92,7.995,8.265
			c0.714,0.043,1.299,0.584,1.396,1.293c0.097,0.709-0.32,1.388-0.997,1.622c-0.08,0.028-8.282,2.952-8.412,8.662
			c-0.018,0.767-0.611,1.398-1.377,1.461C26.048,64.088,26.006,64.09,25.965,64.09z M21.446,52.562
			c2.107,1.333,3.523,3.394,4.447,5.28c1.376-2.232,3.515-3.872,5.364-4.972c-2.286-1.27-3.884-3.35-4.941-5.224
			C25.144,49.932,23.302,51.521,21.446,52.562z"/>
		<path class="st14" d="M26.036,16.517c0,0,2.411,8.954,9.352,9.37c0,0-9.266,3.201-9.422,10.045c0,0-1.824-9.6-9.142-9.944
			C16.824,25.988,25.347,24.697,26.036,16.517z"/>
		<path class="st3" d="M25.965,37.433c-0.714,0-1.337-0.507-1.473-1.22c-0.016-0.082-1.703-8.442-7.738-8.726
			c-0.771-0.037-1.388-0.651-1.428-1.421c-0.04-0.771,0.511-1.445,1.273-1.561c0.296-0.047,7.363-1.243,7.941-8.114
			c0.062-0.726,0.636-1.303,1.361-1.368c0.723-0.06,1.392,0.399,1.581,1.102l0,0c0.022,0.079,2.229,7.92,7.995,8.265
			c0.714,0.043,1.299,0.584,1.396,1.293c0.097,0.709-0.32,1.388-0.997,1.622c-0.08,0.028-8.282,2.952-8.412,8.662
			c-0.018,0.767-0.611,1.397-1.377,1.461C26.048,37.431,26.006,37.433,25.965,37.433z M21.446,25.905
			c2.107,1.333,3.523,3.394,4.447,5.28c1.376-2.232,3.515-3.872,5.364-4.972c-2.286-1.27-3.884-3.35-4.941-5.224
			C25.144,23.275,23.302,24.864,21.446,25.905z"/>
		<path class="st7" d="M106.178,239.481v-18.364c0-11.193-9.072-20.265-20.265-20.265H72.524v-8.701
			c-3.703,2.567-7.535,4.082-11.253,4.082c-3.567,0-7.33-1.53-11.018-4.128h-0.227v8.747H36.628
			c-11.192,0-20.265,9.072-20.265,20.265v18.364H106.178z"/>
		<path class="st3" d="M106.178,240.981H16.363c-0.828,0-1.5-0.671-1.5-1.5v-18.364c0-12.001,9.764-21.765,21.765-21.765h11.897
			v-7.247c0-0.829,0.672-1.5,1.5-1.5h0.227c0.31,0,0.611,0.096,0.864,0.274c3.63,2.557,7.047,3.854,10.154,3.854
			c3.248,0,6.747-1.284,10.399-3.815c0.46-0.318,1.057-0.355,1.551-0.096c0.494,0.259,0.804,0.77,0.804,1.329v7.201h11.889
			c12.001,0,21.765,9.764,21.765,21.765v18.364C107.678,240.31,107.006,240.981,106.178,240.981z M17.863,237.981h86.814v-16.864
			c0-10.347-8.418-18.765-18.765-18.765H72.524c-0.828,0-1.5-0.671-1.5-1.5v-5.982c-3.345,1.902-6.616,2.863-9.754,2.863
			c-3.092,0-6.361-1.013-9.745-3.016v6.135c0,0.829-0.672,1.5-1.5,1.5H36.628c-10.347,0-18.765,8.418-18.765,18.765V237.981z"/>
		<path class="st9" d="M106.178,239.483v-18.372c0-11.193-9.072-20.265-20.265-20.265H82.71l0.083,0.061l-13.926,18.47l-7.187-5.415
			l-7.187,5.415l-13.927-18.47l0.083-0.061h-4.021c-11.193,0-20.265,9.072-20.265,20.265v18.372H106.178z"/>
		<path class="st3" d="M106.178,240.982H16.364c-0.828,0-1.5-0.671-1.5-1.5v-18.372c0-12.001,9.764-21.765,21.765-21.765h4.021
			c0.65,0,1.228,0.42,1.428,1.039c0.006,0.019,0.012,0.038,0.017,0.058l12.693,16.834l5.989-4.513c0.533-0.402,1.271-0.402,1.805,0
			l5.989,4.513l12.694-16.836c0.006-0.02,0.012-0.04,0.019-0.059c0.201-0.617,0.776-1.035,1.426-1.035h3.203
			c12.001,0,21.765,9.764,21.765,21.765v18.372C107.678,240.311,107.006,240.982,106.178,240.982z M17.864,237.982h86.813v-16.872
			c0-10.347-8.418-18.765-18.765-18.765h-2.327l-13.522,17.934c-0.497,0.662-1.438,0.793-2.1,0.295l-6.284-4.735l-6.284,4.735
			c-0.66,0.498-1.601,0.366-2.1-0.295l-13.522-17.934h-3.145c-10.347,0-18.765,8.418-18.765,18.765V237.982z"/>
		
			<ellipse transform="matrix(0.7533 -0.6576 0.6576 0.7533 -92.5213 54.5623)" class="st12" cx="26.473" cy="150.616" rx="7.974" ry="7.974"/>
		<path class="st3" d="M26.474,160.09c-5.225,0-9.475-4.25-9.475-9.474c0-5.224,4.25-9.474,9.475-9.474
			c5.224,0,9.474,4.25,9.474,9.474C35.947,155.84,31.697,160.09,26.474,160.09z M26.474,144.142c-3.57,0-6.475,2.904-6.475,6.474
			c0,3.569,2.904,6.474,6.475,6.474c3.569,0,6.474-2.904,6.474-6.474C32.947,147.046,30.043,144.142,26.474,144.142z"/>
		
			<ellipse transform="matrix(0.2156 -0.9765 0.9765 0.2156 -71.713 211.9624)" class="st12" cx="96.071" cy="150.616" rx="7.974" ry="7.974"/>
		<path class="st3" d="M96.07,160.09c-5.224,0-9.474-4.25-9.474-9.474c0-5.224,4.25-9.474,9.474-9.474
			c5.225,0,9.475,4.25,9.475,9.474C105.545,155.84,101.295,160.09,96.07,160.09z M96.07,144.142c-3.569,0-6.474,2.904-6.474,6.474
			c0,3.569,2.904,6.474,6.474,6.474c3.57,0,6.475-2.904,6.475-6.474C102.545,147.046,99.641,144.142,96.07,144.142z"/>
		<path class="st7" d="M96.621,146.745c0,19.523-18.802,49.488-35.349,49.488c-15.794,0-35.349-29.966-35.349-49.488
			s15.826-35.349,35.349-35.349C80.795,111.397,96.621,127.223,96.621,146.745z"/>
		<path class="st3" d="M61.271,197.733c-7.845,0-16.896-6.586-24.831-18.07c-7.413-10.728-12.017-23.341-12.017-32.918
			c0-20.318,16.53-36.849,36.849-36.849c20.319,0,36.85,16.53,36.85,36.849c0,9.684-4.495,22.294-11.73,32.91
			C78.561,191.144,69.404,197.733,61.271,197.733z M61.271,112.897c-18.664,0-33.849,15.185-33.849,33.849
			c0,18.234,18.91,47.988,33.849,47.988c7.021,0,15.484-6.269,22.641-16.768c6.914-10.145,11.209-22.107,11.209-31.22
			C95.121,128.081,79.937,112.897,61.271,112.897z"/>
		<path class="st3" d="M52.242,146.346c0,1.906-1.545,3.45-3.45,3.45c-1.906,0-3.45-1.545-3.45-3.45c0-1.905,1.545-3.45,3.45-3.45
			C50.697,142.896,52.242,144.441,52.242,146.346z"/>
		<path class="st3" d="M77.202,146.346c0,1.906-1.545,3.45-3.45,3.45c-1.906,0-3.45-1.545-3.45-3.45c0-1.905,1.545-3.45,3.45-3.45
			C75.658,142.896,77.202,144.441,77.202,146.346z"/>
		<path class="st13" d="M47.84,156.604c0,2.454-2.661,4.443-5.944,4.443c-3.282,0-5.943-1.989-5.943-4.443
			c0-2.454,2.661-4.443,5.943-4.443C45.179,152.161,47.84,154.15,47.84,156.604z"/>
		<path class="st13" d="M86.591,156.604c0,2.454-2.661,4.443-5.943,4.443c-3.282,0-5.943-1.989-5.943-4.443
			c0-2.454,2.661-4.443,5.943-4.443C83.93,152.161,86.591,154.15,86.591,156.604z"/>
		<path class="st4" d="M61.68,103.595c-20.207,0-36.587,15.661-36.587,34.98c0,2.044,0.37,3.568,1.057,5.471
			c0.324,0.897,5.563-1.969,6.009-2.283c2.231-1.571,4.054-3.699,5.416-6.053c0.563-0.979,1.033-1.974,1.411-2.97
			c1.206-3.178,4.483-12.019,7.81-11.326c4.462,0.93,9.519,1.456,14.883,1.456s10.422-0.526,14.883-1.456
			c3.327-0.694,6.604,8.148,7.81,11.326c0.378,0.996,0.848,1.992,1.411,2.971c2.251,3.893,6.052,7.6,10.677,8.274
			c0.012-0.224,0.294-0.3,0.504-0.376c1.514-0.55,1.302-3.821,1.302-5.035C98.267,119.256,81.886,103.595,61.68,103.595z"/>
		<path class="st3" d="M26.433,145.7c-0.21,0-0.399-0.024-0.565-0.076c-0.533-0.168-0.944-0.558-1.128-1.069
			c-0.688-1.902-1.146-3.648-1.146-5.98c0-20.115,17.086-36.48,38.087-36.48c21.002,0,38.088,16.365,38.088,36.48l0.004,0.387
			c0.026,1.788,0.074,5.092-2.185,6.016c-0.053,0.06-0.111,0.117-0.174,0.168c-0.326,0.268-0.749,0.383-1.168,0.324
			c-4.479-0.653-8.876-4.021-11.76-9.007c-0.594-1.032-1.103-2.104-1.515-3.189l-0.077-0.203
			c-3.826-10.092-5.69-10.261-6.023-10.187c-4.736,0.987-9.847,1.487-15.19,1.487c-5.344,0-10.454-0.501-15.188-1.487
			c-0.336-0.066-2.2,0.094-6.026,10.189l-0.076,0.2c-0.412,1.085-0.921,2.157-1.514,3.187c-1.541,2.663-3.564,4.92-5.853,6.531
			C32.979,143.022,28.645,145.7,26.433,145.7z M61.68,105.095c-19.347,0-35.087,15.019-35.087,33.48
			c0,1.518,0.225,2.686,0.624,3.953c1.279-0.467,3.553-1.643,4.091-1.999c1.924-1.354,3.645-3.283,4.97-5.569
			c0.511-0.888,0.951-1.814,1.307-2.751l0.075-0.199c2.561-6.753,5.457-12.899,9.444-12.063c4.533,0.945,9.438,1.424,14.576,1.424
			c5.138,0,10.043-0.479,14.578-1.424c3.969-0.838,6.882,5.308,9.441,12.06l0.076,0.202c0.355,0.937,0.796,1.863,1.309,2.754
			c2.278,3.94,5.58,6.667,8.938,7.417c0.116-0.059,0.244-0.114,0.385-0.164c0.169-0.174,0.399-0.901,0.366-3.211l-0.005-0.431
			C96.768,120.114,81.027,105.095,61.68,105.095z"/>
		
			<rect x="46.622" y="195.855" transform="matrix(0.7986 -0.6019 0.6019 0.7986 -114.5382 72.5527)" class="st4" width="9.037" height="23.132"/>
		<path class="st3" d="M54.493,220.877c-0.069,0-0.139-0.005-0.209-0.015c-0.394-0.055-0.749-0.265-0.989-0.582l-13.923-18.473
			c-0.239-0.318-0.343-0.718-0.287-1.111c0.056-0.394,0.265-0.75,0.583-0.989l7.217-5.439c0.659-0.5,1.602-0.367,2.101,0.295
			l13.922,18.473c0.498,0.662,0.366,1.602-0.296,2.101l-7.216,5.438C55.135,220.771,54.817,220.877,54.493,220.877z M42.671,201.198
			l12.117,16.078l4.82-3.633l-12.116-16.078L42.671,201.198z"/>
		
			<rect x="67.702" y="195.855" transform="matrix(-0.7986 -0.6019 0.6019 -0.7986 5.0575 416.5335)" class="st4" width="9.037" height="23.132"/>
		<path class="st3" d="M68.866,220.877c-0.314,0-0.632-0.098-0.901-0.302l-7.217-5.438c-0.318-0.239-0.527-0.595-0.583-0.989
			c-0.056-0.394,0.048-0.794,0.287-1.111l13.922-18.473c0.498-0.662,1.44-0.795,2.101-0.295l7.217,5.439
			c0.318,0.239,0.527,0.595,0.583,0.989c0.056,0.394-0.048,0.794-0.287,1.111l-13.922,18.473
			C69.771,220.67,69.321,220.877,68.866,220.877z M63.751,213.643l4.821,3.633l12.116-16.077l-4.821-3.633L63.751,213.643z"/>
		<path class="st3" d="M33.187,240.982c-0.828,0-1.5-0.671-1.5-1.5v-14.515c0-0.829,0.672-1.5,1.5-1.5c0.828,0,1.5,0.671,1.5,1.5
			v14.515C34.687,240.311,34.015,240.982,33.187,240.982z"/>
		<path class="st3" d="M90.173,240.982c-0.828,0-1.5-0.671-1.5-1.5v-14.515c0-0.829,0.672-1.5,1.5-1.5c0.828,0,1.5,0.671,1.5,1.5
			v14.515C91.673,240.311,91.001,240.982,90.173,240.982z"/>
		<path class="st4" d="M31.369,110.46c6,7.555,13.178,15.611,21.847,18.076c13.963,3.97,38.677-0.982,38.677-21.08
			c0-12.851-10.771-28.384-30.874-16.557c-24.918,14.659-39.381-13.52-39.381-0.669c0,4.062,1.637,8.114,3.785,11.8L31.369,110.46z"
			/>
		<path class="st3" d="M62.987,131.293c-3.687,0-7.195-0.466-10.181-1.315c-8.912-2.534-16.135-10.43-22.612-18.585
			c-0.017-0.022-0.034-0.045-0.051-0.068l-5.946-8.43c-0.025-0.036-0.049-0.072-0.07-0.109c-2.685-4.606-3.989-8.713-3.989-12.555
			c0-1.688,0.196-3.737,1.728-4.604c1.811-1.027,3.931,0.244,7.138,2.168c6.358,3.814,17.003,10.196,31.255,1.812
			c10.801-6.353,18.297-4.695,22.682-2.187c7.222,4.13,10.454,13.04,10.454,20.037c0,7.095-2.966,13.086-8.578,17.325
			C78.758,129.356,70.503,131.293,62.987,131.293z M32.57,109.56c6.158,7.75,12.973,15.234,21.057,17.532
			c8.358,2.377,21.135,1.522,29.381-4.706c4.9-3.702,7.386-8.726,7.386-14.931c0-6.131-2.766-13.899-8.943-17.432
			c-5.303-3.034-12.106-2.283-19.671,2.168c-15.788,9.288-27.844,2.059-34.319-1.825c-1.516-0.909-3.38-2.027-4.09-2.095
			c-0.081,0.192-0.232,0.715-0.232,1.959c0,3.282,1.161,6.877,3.549,10.989L32.57,109.56z"/>
		<path class="st3" d="M61.271,176.918c-5.188,0-8.931-2.333-11.122-6.935c-0.356-0.748-0.038-1.643,0.71-1.999
			c0.747-0.358,1.642-0.039,1.999,0.709c1.697,3.564,4.371,5.225,8.413,5.225c5.104,0,7.702-3.339,8.362-5.105
			c0.29-0.776,1.156-1.17,1.931-0.879c0.776,0.29,1.17,1.155,0.88,1.931C71.171,173.262,67.133,176.918,61.271,176.918z"/>
		<path class="st7" d="M238.844,221.117v18.364H149.03v-18.364c0-11.193,9.072-20.265,20.265-20.265h13.397v-8.747h0.227
			c3.688,2.598,7.452,4.128,11.019,4.128c3.718,0,7.55-1.515,11.253-4.082v8.701h13.389
			C229.772,200.852,238.844,209.924,238.844,221.117z"/>
		<path class="st3" d="M238.845,240.981H149.03c-0.828,0-1.5-0.671-1.5-1.5v-18.364c0-12.001,9.764-21.765,21.765-21.765h11.896
			v-7.247c0-0.829,0.672-1.5,1.5-1.5h0.227c0.31,0,0.611,0.096,0.864,0.274c3.629,2.557,7.046,3.854,10.154,3.854
			c3.249,0,6.747-1.284,10.398-3.815c0.459-0.318,1.056-0.354,1.55-0.096c0.495,0.259,0.805,0.771,0.805,1.329v7.201h11.889
			c12.002,0,21.766,9.764,21.766,21.765v18.364C240.345,240.31,239.673,240.981,238.845,240.981z M150.53,237.981h86.814v-16.864
			c0-10.347-8.418-18.765-18.766-18.765H205.19c-0.828,0-1.5-0.671-1.5-1.5v-5.982c-3.344,1.901-6.615,2.863-9.753,2.863
			c-3.093,0-6.362-1.013-9.746-3.016v6.135c0,0.829-0.672,1.5-1.5,1.5h-13.396c-10.347,0-18.765,8.418-18.765,18.765V237.981z"/>
		<path class="st14" d="M238.845,221.111v18.372h-89.814v-18.372c0-11.193,9.072-20.265,20.265-20.265h4.021l-0.083,0.061
			l13.926,18.47l7.187-5.415l7.187,5.415l13.926-18.47l-0.083-0.061h3.203C229.773,200.846,238.845,209.918,238.845,221.111z"/>
		<path class="st3" d="M238.845,240.982H149.03c-0.828,0-1.5-0.671-1.5-1.5v-18.372c0-12.001,9.764-21.765,21.765-21.765h4.021
			c0.649,0,1.225,0.418,1.426,1.035c0.007,0.02,0.013,0.04,0.018,0.059l12.694,16.836l5.989-4.513c0.533-0.402,1.271-0.402,1.805,0
			l5.989,4.513l12.693-16.834c0.005-0.019,0.011-0.039,0.017-0.058c0.2-0.619,0.777-1.039,1.428-1.039h3.204
			c12.001,0,21.765,9.764,21.765,21.765v18.372C240.345,240.311,239.673,240.982,238.845,240.982z M150.53,237.982h86.814v-16.872
			c0-10.347-8.418-18.765-18.765-18.765h-2.327l-13.522,17.934c-0.497,0.662-1.438,0.793-2.1,0.295l-6.284-4.735l-6.284,4.735
			c-0.659,0.498-1.602,0.366-2.1-0.295l-13.523-17.934h-3.145c-10.347,0-18.765,8.418-18.765,18.765V237.982z"/>
		
			<ellipse transform="matrix(0.9456 -0.3252 0.3252 0.9456 -40.3346 59.9485)" class="st12" cx="159.14" cy="150.616" rx="7.974" ry="7.974"/>
		<path class="st3" d="M159.14,160.09c-5.224,0-9.474-4.25-9.474-9.474c0-5.224,4.25-9.474,9.474-9.474
			c5.224,0,9.474,4.25,9.474,9.474C168.613,155.84,164.363,160.09,159.14,160.09z M159.14,144.142c-3.569,0-6.474,2.904-6.474,6.474
			c0,3.569,2.904,6.474,6.474,6.474c3.569,0,6.474-2.904,6.474-6.474C165.613,147.046,162.709,144.142,159.14,144.142z"/>
		
			<ellipse transform="matrix(0.7533 -0.6576 0.6576 0.7533 -42.6288 187.5799)" class="st12" cx="228.737" cy="150.616" rx="7.974" ry="7.974"/>
		<path class="st3" d="M228.737,160.09c-5.224,0-9.474-4.25-9.474-9.474c0-5.224,4.25-9.474,9.474-9.474s9.474,4.25,9.474,9.474
			C238.211,155.84,233.961,160.09,228.737,160.09z M228.737,144.142c-3.569,0-6.474,2.904-6.474,6.474
			c0,3.569,2.904,6.474,6.474,6.474c3.569,0,6.474-2.904,6.474-6.474C235.211,147.046,232.307,144.142,228.737,144.142z"/>
		<path class="st7" d="M229.287,146.745c0,19.523-18.802,49.488-35.349,49.488c-15.795,0-35.349-29.966-35.349-49.488
			s15.826-35.349,35.349-35.349C213.461,111.397,229.287,127.223,229.287,146.745z"/>
		<path class="st3" d="M193.939,197.733c-7.846,0-16.896-6.586-24.831-18.07c-7.413-10.728-12.018-23.341-12.018-32.918
			c0-20.318,16.53-36.849,36.849-36.849c20.318,0,36.849,16.53,36.849,36.849c0,9.684-4.494,22.294-11.729,32.91
			C211.227,191.144,202.071,197.733,193.939,197.733z M193.939,112.897c-18.664,0-33.849,15.185-33.849,33.849
			c0,18.234,18.91,47.988,33.849,47.988c7.02,0,15.484-6.269,22.64-16.768c6.914-10.145,11.209-22.107,11.209-31.22
			C227.787,128.081,212.602,112.897,193.939,112.897z"/>
		<path class="st3" d="M184.909,146.346c0,1.906-1.545,3.45-3.45,3.45s-3.45-1.545-3.45-3.45c0-1.905,1.545-3.45,3.45-3.45
			S184.909,144.441,184.909,146.346z"/>
		<circle class="st3" cx="206.419" cy="146.346" r="3.45"/>
		<path class="st13" d="M180.506,156.604c0,2.454-2.661,4.443-5.943,4.443c-3.282,0-5.943-1.989-5.943-4.443
			c0-2.454,2.661-4.443,5.943-4.443C177.845,152.161,180.506,154.15,180.506,156.604z"/>
		<path class="st13" d="M219.258,156.604c0,2.454-2.661,4.443-5.943,4.443c-3.282,0-5.943-1.989-5.943-4.443
			c0-2.454,2.661-4.443,5.943-4.443C216.597,152.161,219.258,154.15,219.258,156.604z"/>
		<path class="st4" d="M194.346,103.595c-20.206,0-36.587,15.661-36.587,34.98c0,2.044,0.37,3.568,1.057,5.471
			c0.324,0.897,5.563-1.969,6.009-2.283c2.231-1.571,4.054-3.699,5.416-6.053c0.563-0.979,1.033-1.974,1.411-2.97
			c1.206-3.178,4.483-12.019,7.81-11.326c4.462,0.93,9.519,1.456,14.883,1.456c5.365,0,10.422-0.526,14.883-1.456
			c3.327-0.694,6.604,8.148,7.81,11.326c0.378,0.996,0.848,1.992,1.411,2.971c2.251,3.893,6.052,7.6,10.677,8.274
			c0.012-0.224,0.294-0.3,0.504-0.376c1.514-0.55,1.302-3.821,1.302-5.035C230.934,119.256,214.553,103.595,194.346,103.595z"/>
		<path class="st3" d="M159.099,145.701c-0.209,0-0.398-0.024-0.564-0.076c-0.533-0.168-0.944-0.558-1.129-1.068
			c-0.688-1.905-1.146-3.651-1.146-5.981c0-20.115,17.086-36.48,38.087-36.48s38.087,16.365,38.087,36.48l0.004,0.388
			c0.026,1.788,0.075,5.091-2.185,6.015c-0.053,0.06-0.111,0.117-0.174,0.168c-0.326,0.268-0.75,0.383-1.168,0.324
			c-4.48-0.653-8.875-4.021-11.759-9.007c-0.594-1.032-1.102-2.104-1.515-3.189l-0.076-0.2c-3.826-10.095-5.697-10.263-6.025-10.189
			c-4.735,0.987-9.846,1.487-15.189,1.487c-5.344,0-10.454-0.501-15.189-1.487c-0.335-0.069-2.198,0.092-6.024,10.187l-0.077,0.203
			c-0.412,1.085-0.921,2.157-1.514,3.187c-1.541,2.663-3.565,4.92-5.853,6.531C165.645,143.022,161.311,145.701,159.099,145.701z
			 M230.626,144.067 M194.347,105.095c-19.347,0-35.087,15.019-35.087,33.48c0,1.518,0.224,2.686,0.624,3.953
			c1.279-0.467,3.553-1.643,4.091-1.999c1.924-1.354,3.646-3.283,4.97-5.569c0.511-0.888,0.951-1.814,1.307-2.751l0.076-0.202
			c2.56-6.752,5.457-12.897,9.442-12.06c4.534,0.945,9.439,1.424,14.577,1.424c5.139,0,10.043-0.479,14.577-1.424
			c3.974-0.831,6.883,5.309,9.443,12.063l0.075,0.199c0.355,0.937,0.796,1.863,1.309,2.754c2.278,3.941,5.579,6.667,8.938,7.417
			c0.114-0.059,0.241-0.113,0.381-0.163c0.172-0.175,0.402-0.902,0.369-3.21l-0.005-0.432
			C229.434,120.114,213.693,105.095,194.347,105.095z"/>
		
			<rect x="179.288" y="195.855" transform="matrix(0.7986 -0.6019 0.6019 0.7986 -87.8193 152.3973)" class="st4" width="9.037" height="23.132"/>
		<path class="st3" d="M187.16,220.877c-0.455,0-0.904-0.206-1.199-0.597l-13.922-18.473c-0.239-0.318-0.343-0.718-0.287-1.111
			c0.056-0.394,0.265-0.75,0.583-0.989l7.217-5.439c0.659-0.5,1.602-0.367,2.1,0.295l13.922,18.473
			c0.239,0.318,0.343,0.718,0.287,1.111c-0.056,0.394-0.265,0.75-0.583,0.989l-7.217,5.438
			C187.792,220.778,187.475,220.877,187.16,220.877z M175.338,201.199l12.116,16.077l4.821-3.633l-12.116-16.077L175.338,201.199z"
			/>
		
			<rect x="200.368" y="195.855" transform="matrix(-0.7986 -0.6019 0.6019 -0.7986 243.6703 496.3802)" class="st4" width="9.036" height="23.132"/>
		<path class="st3" d="M201.533,220.877c-0.314,0-0.632-0.098-0.901-0.302l-7.217-5.438c-0.318-0.239-0.527-0.595-0.583-0.989
			c-0.056-0.394,0.048-0.794,0.287-1.111l13.922-18.473c0.498-0.662,1.44-0.795,2.101-0.295l7.217,5.439
			c0.318,0.239,0.527,0.595,0.583,0.989c0.056,0.394-0.048,0.794-0.287,1.111l-13.922,18.473
			C202.438,220.67,201.988,220.877,201.533,220.877z M196.418,213.643l4.821,3.633l12.116-16.077l-4.821-3.633L196.418,213.643z"/>
		<path class="st3" d="M165.854,240.982c-0.828,0-1.5-0.671-1.5-1.5v-14.515c0-0.829,0.672-1.5,1.5-1.5s1.5,0.671,1.5,1.5v14.515
			C167.354,240.311,166.682,240.982,165.854,240.982z"/>
		<path class="st3" d="M222.84,240.982c-0.828,0-1.5-0.671-1.5-1.5v-14.515c0-0.829,0.672-1.5,1.5-1.5c0.828,0,1.5,0.671,1.5,1.5
			v14.515C224.34,240.311,223.668,240.982,222.84,240.982z"/>
		<path class="st3" d="M193.938,176.918c-5.189,0-8.932-2.333-11.122-6.935c-0.355-0.748-0.038-1.643,0.71-1.999
			c0.748-0.356,1.643-0.038,1.999,0.71c1.696,3.564,4.37,5.224,8.413,5.224c5.102,0,7.701-3.34,8.363-5.106
			c0.29-0.775,1.152-1.169,1.931-0.878c0.775,0.291,1.169,1.155,0.878,1.931C203.837,173.262,199.798,176.918,193.938,176.918z"/>
		
			<ellipse transform="matrix(0.1471 -0.9891 0.9891 0.1471 -19.1916 296.9756)" class="st12" cx="162.604" cy="159.616" rx="7.974" ry="7.974"/>
		<path class="st3" d="M162.604,169.09c-5.224,0-9.474-4.25-9.474-9.474c0-5.224,4.25-9.474,9.474-9.474s9.474,4.25,9.474,9.474
			C172.077,164.84,167.827,169.09,162.604,169.09z M162.604,153.142c-3.569,0-6.474,2.904-6.474,6.474
			c0,3.569,2.904,6.474,6.474,6.474c3.569,0,6.474-2.904,6.474-6.474C169.077,156.046,166.173,153.142,162.604,153.142z"/>
		<path class="st15" d="M233.137,109.38c0,0-17.087,17.939-38.165,17.939c-21.078,0-28.668-8.032-28.668-17.939
			s7.59-17.94,28.668-17.94C216.05,91.441,233.137,109.38,233.137,109.38z"/>
		<path class="st3" d="M194.972,128.82c-26.249,0-30.168-12.179-30.168-19.439c0-7.26,3.919-19.439,30.168-19.439
			c21.474,0,38.535,17.653,39.251,18.405c0.552,0.58,0.552,1.49,0,2.069C233.507,111.167,216.445,128.82,194.972,128.82z
			 M194.972,92.941c-17.773,0-27.168,5.685-27.168,16.439s9.395,16.439,27.168,16.439c17.297,0,32.034-12.682,36.02-16.438
			C227.001,105.625,212.242,92.941,194.972,92.941z"/>
		<rect x="89.388" y="140.269" class="st4" width="75.867" height="86.835"/>
		<path class="st3" d="M165.255,228.604H89.389c-0.828,0-1.5-0.671-1.5-1.5v-86.835c0-0.829,0.672-1.5,1.5-1.5h75.866
			c0.828,0,1.5,0.671,1.5,1.5v86.835C166.755,227.933,166.083,228.604,165.255,228.604z M90.889,225.604h72.866v-83.835H90.889
			V225.604z"/>
		<path class="st7" d="M172.731,239.483v-9.191c0-11.193-9.072-20.265-20.265-20.265h-13.389v-8.701
			c-3.703,2.567-7.535,4.082-11.253,4.082c-3.567,0-7.33-1.53-11.019-4.128h-0.227v8.747h-13.397
			c-11.192,0-20.265,9.072-20.265,20.265v9.191H172.731z"/>
		<path class="st3" d="M172.73,240.982H82.917c-0.828,0-1.5-0.671-1.5-1.5v-9.191c0-12.002,9.764-21.765,21.765-21.765h11.896
			v-7.247c0-0.829,0.672-1.5,1.5-1.5h0.227c0.31,0,0.611,0.096,0.864,0.274c3.63,2.557,7.047,3.854,10.154,3.854
			c3.249,0,6.748-1.284,10.4-3.815c0.46-0.318,1.056-0.354,1.55-0.096c0.495,0.259,0.805,0.771,0.805,1.329v7.201h11.889
			c12.001,0,21.765,9.764,21.765,21.765v9.191C174.23,240.311,173.559,240.982,172.73,240.982z M84.417,237.982h86.813v-7.691
			c0-10.347-8.418-18.765-18.765-18.765h-13.389c-0.828,0-1.5-0.671-1.5-1.5v-5.982c-3.344,1.901-6.615,2.863-9.754,2.863
			c-3.092,0-6.361-1.013-9.745-3.016v6.135c0,0.829-0.672,1.5-1.5,1.5h-13.396c-10.347,0-18.765,8.418-18.765,18.765V237.982z"/>
		<path class="st8" d="M172.731,239.483v-9.197c0-11.193-9.072-20.265-20.265-20.265h-3.203l0.083,0.061l-13.926,18.47l-7.187-5.415
			l-7.187,5.415l-13.927-18.47l0.083-0.061h-4.021c-11.193,0-20.265,9.073-20.265,20.265v9.197H172.731z"/>
		<path class="st3" d="M172.731,240.982H82.917c-0.828,0-1.5-0.671-1.5-1.5v-9.197c0-12.001,9.764-21.765,21.765-21.765h4.021
			c0.649,0,1.225,0.418,1.426,1.035c0.007,0.02,0.013,0.039,0.019,0.059l12.693,16.836l5.989-4.512c0.533-0.402,1.271-0.402,1.805,0
			l5.99,4.513l12.693-16.837c0.006-0.02,0.012-0.039,0.018-0.059c0.201-0.617,0.776-1.035,1.426-1.035h3.203
			c12.002,0,21.766,9.764,21.766,21.765v9.197C174.231,240.311,173.56,240.982,172.731,240.982z M84.417,237.982h86.814v-7.697
			c0-10.347-8.418-18.765-18.766-18.765h-2.327l-13.521,17.934c-0.497,0.662-1.438,0.794-2.1,0.295l-6.285-4.735l-6.284,4.735
			c-0.663,0.498-1.602,0.366-2.1-0.295l-13.521-17.934h-3.146c-10.347,0-18.765,8.418-18.765,18.765V237.982z"/>
		
			<ellipse transform="matrix(0.9231 -0.3846 0.3846 0.9231 -54.2944 48.0608)" class="st12" cx="93.026" cy="159.791" rx="7.974" ry="7.974"/>
		<path class="st3" d="M93.026,169.265c-5.224,0-9.474-4.25-9.474-9.474c0-5.224,4.25-9.474,9.474-9.474
			c5.224,0,9.474,4.25,9.474,9.474C102.5,165.015,98.25,169.265,93.026,169.265z M93.026,153.317c-3.569,0-6.474,2.904-6.474,6.474
			c0,3.569,2.904,6.474,6.474,6.474c3.569,0,6.474-2.904,6.474-6.474C99.5,156.221,96.596,153.317,93.026,153.317z"/>
		
			<ellipse transform="matrix(0.7071 -0.7071 0.7071 0.7071 -65.3578 161.794)" class="st12" cx="162.624" cy="159.791" rx="7.974" ry="7.974"/>
		<path class="st3" d="M162.624,169.265c-5.225,0-9.475-4.25-9.475-9.474c0-5.224,4.25-9.474,9.475-9.474
			c5.224,0,9.474,4.25,9.474,9.474C172.098,165.015,167.848,169.265,162.624,169.265z M162.624,153.317
			c-3.57,0-6.475,2.904-6.475,6.474c0,3.569,2.904,6.474,6.475,6.474c3.569,0,6.474-2.904,6.474-6.474
			C169.098,156.221,166.193,153.317,162.624,153.317z"/>
		<path class="st7" d="M163.174,155.92c0,19.523-18.802,49.488-35.349,49.488c-15.795,0-35.349-29.966-35.349-49.488
			c0-19.523,15.826-35.349,35.349-35.349C147.348,120.571,163.174,136.398,163.174,155.92z"/>
		<path class="st3" d="M127.825,206.908c-7.846,0-16.896-6.586-24.831-18.07c-7.413-10.727-12.018-23.341-12.018-32.918
			c0-20.318,16.53-36.849,36.849-36.849s36.849,16.53,36.849,36.849c0,9.684-4.494,22.294-11.729,32.91
			C145.114,200.319,135.958,206.908,127.825,206.908z M127.825,122.071c-18.664,0-33.849,15.185-33.849,33.849
			c0,18.234,18.91,47.988,33.849,47.988c7.021,0,15.484-6.269,22.64-16.768c6.914-10.145,11.209-22.107,11.209-31.22
			C161.674,137.256,146.489,122.071,127.825,122.071z"/>
		<path class="st3" d="M118.795,155.521c0,1.906-1.545,3.45-3.45,3.45c-1.906,0-3.45-1.545-3.45-3.45c0-1.905,1.545-3.45,3.45-3.45
			C117.25,152.071,118.795,153.616,118.795,155.521z"/>
		<circle class="st3" cx="140.305" cy="155.521" r="3.45"/>
		<path class="st13" d="M114.393,165.779c0,2.454-2.661,4.443-5.943,4.443c-3.282,0-5.943-1.989-5.943-4.443
			c0-2.454,2.661-4.443,5.943-4.443C111.732,161.336,114.393,163.325,114.393,165.779z"/>
		<path class="st13" d="M153.144,165.779c0,2.454-2.661,4.443-5.943,4.443c-3.282,0-5.943-1.989-5.943-4.443
			c0-2.454,2.661-4.443,5.943-4.443C150.483,161.336,153.144,163.325,153.144,165.779z"/>
		
			<rect x="113.175" y="205.029" transform="matrix(0.7986 -0.6019 0.6019 0.7986 -106.6559 114.4544)" class="st4" width="9.037" height="23.132"/>
		<path class="st3" d="M121.047,230.051c-0.455,0-0.904-0.206-1.199-0.597l-13.923-18.473c-0.239-0.318-0.343-0.718-0.287-1.111
			c0.056-0.394,0.265-0.75,0.583-0.989l7.217-5.438c0.659-0.5,1.601-0.367,2.101,0.295l13.923,18.473
			c0.239,0.318,0.343,0.718,0.287,1.111c-0.056,0.394-0.265,0.75-0.583,0.989l-7.217,5.438
			C121.679,229.953,121.361,230.051,121.047,230.051z M109.224,210.373l12.117,16.078l4.821-3.633l-12.117-16.078L109.224,210.373z"
			/>
		
			<rect x="134.255" y="205.029" transform="matrix(-0.7986 -0.6019 0.6019 -0.7986 119.2362 473.0905)" class="st4" width="9.036" height="23.132"/>
		<path class="st3" d="M135.419,230.051c-0.314,0-0.632-0.098-0.901-0.302l-7.217-5.438c-0.318-0.239-0.527-0.595-0.583-0.989
			c-0.056-0.394,0.048-0.794,0.287-1.111l13.923-18.473c0.498-0.662,1.44-0.794,2.101-0.295l7.217,5.438
			c0.318,0.239,0.527,0.595,0.583,0.989c0.056,0.394-0.048,0.794-0.287,1.111l-13.923,18.473
			C136.323,229.845,135.874,230.051,135.419,230.051z M130.304,222.818l4.821,3.633l12.117-16.078l-4.821-3.633L130.304,222.818z"/>
		<path class="st3" d="M127.824,186.093c-5.189,0-8.932-2.333-11.122-6.935c-0.355-0.748-0.038-1.643,0.71-1.999
			c0.749-0.356,1.644-0.038,1.999,0.71c1.696,3.564,4.37,5.224,8.413,5.224c5.103,0,7.701-3.339,8.361-5.105
			c0.29-0.776,1.156-1.17,1.931-0.879c0.776,0.291,1.17,1.155,0.88,1.931C137.724,182.437,133.686,186.093,127.824,186.093z"/>
		<path class="st4" d="M168.054,142.964c0,3.622-0.471,7.133-1.362,10.475c-9.054-4.365-17.666-9.724-25.645-15.782
			c-2.341-1.774-4.645-3.622-6.846-5.58c-2.701-2.37-5.256-4.924-7.56-7.692c-5.013-6.036-8.693-12.97-11.807-20.191
			c3.931-1.273,8.126-1.958,12.484-1.958c11.652,0,22.164,4.895,29.591,12.742C163.822,122.273,168.054,132.122,168.054,142.964z"/>
		<path class="st3" d="M166.692,154.939c-0.223,0-0.445-0.05-0.651-0.149c-8.924-4.303-17.639-9.665-25.901-15.938
			c-2.636-1.998-4.904-3.847-6.936-5.654c-2.898-2.543-5.496-5.187-7.716-7.853c-4.495-5.414-8.318-11.945-12.03-20.557
			c-0.168-0.388-0.164-0.828,0.011-1.212c0.174-0.385,0.502-0.678,0.904-0.809c4.161-1.348,8.517-2.031,12.946-2.031
			c11.721,0,22.616,4.692,30.681,13.211c7.45,7.864,11.554,18.169,11.554,29.017c0,3.691-0.475,7.346-1.412,10.861
			c-0.115,0.432-0.417,0.79-0.823,0.977C167.119,154.894,166.906,154.939,166.692,154.939z M116.889,105.144
			c3.383,7.582,6.87,13.423,10.907,18.284c2.118,2.545,4.606,5.076,7.395,7.523c1.98,1.761,4.189,3.561,6.763,5.512
			c7.587,5.76,15.559,10.736,23.72,14.807c0.585-2.709,0.881-5.494,0.881-8.304c0-10.077-3.811-19.649-10.732-26.954
			c-7.492-7.915-17.614-12.274-28.502-12.274C123.767,103.736,120.266,104.209,116.889,105.144z"/>
		<path class="st4" d="M156.91,114.978c-7.008,6.389-14.633,12.042-22.708,17.099c-14.317,8.973-30.018,16.054-46.087,21.95
			c-0.994-3.518-1.524-7.228-1.524-11.063c0-18.137,11.858-33.507,28.244-38.77c3.931-1.273,8.126-1.958,12.484-1.958
			C138.971,102.237,149.483,107.132,156.91,114.978z"/>
		<path class="st3" d="M88.115,155.528c-0.234,0-0.469-0.055-0.682-0.164c-0.372-0.19-0.648-0.526-0.762-0.928
			c-1.049-3.713-1.581-7.572-1.581-11.471c0-18.417,11.769-34.572,29.285-40.198c4.158-1.347,8.514-2.03,12.943-2.03
			c11.721,0,22.616,4.692,30.681,13.211c0.276,0.292,0.424,0.684,0.409,1.086c-0.015,0.402-0.19,0.782-0.488,1.053
			c-6.757,6.16-14.47,11.968-22.924,17.262c-13.142,8.236-28.308,15.461-46.365,22.087C88.465,155.498,88.29,155.528,88.115,155.528
			z M127.319,103.736c-4.115,0-8.16,0.634-12.022,1.885c-16.274,5.227-27.206,20.234-27.206,37.343c0,3.075,0.355,6.122,1.059,9.082
			c17.178-6.395,31.669-13.352,44.255-21.24c7.823-4.899,14.994-10.241,21.338-15.894
			C147.372,107.693,137.693,103.736,127.319,103.736z"/>
		<path class="st8" d="M93.263,57.953v21.921c0,3.369,2.731,6.1,6.1,6.1h134.174c3.369,0,6.1-2.731,6.1-6.1V22.618
			c0-3.369-2.731-6.1-6.1-6.1H99.363c-3.369,0-6.1,2.731-6.1,6.1v22.096V57.953z"/>
		<path class="st3" d="M233.536,87.475H99.363c-4.191,0-7.601-3.409-7.601-7.6V57.953c0-0.829,0.672-1.5,1.5-1.5
			c0.828,0,1.5,0.671,1.5,1.5v21.921c0,2.537,2.063,4.6,4.601,4.6h134.173c2.537,0,4.601-2.063,4.601-4.6V22.618
			c0-2.537-2.064-4.6-4.601-4.6H99.363c-2.537,0-4.601,2.063-4.601,4.6v22.096c0,0.829-0.672,1.5-1.5,1.5
			c-0.828,0-1.5-0.671-1.5-1.5V22.618c0-4.191,3.409-7.6,7.601-7.6h134.173c4.191,0,7.601,3.409,7.601,7.6v57.257
			C241.137,84.065,237.727,87.475,233.536,87.475z"/>
		<path class="st7" d="M159.174,27.041h-50.139c-2.4,0-4.347,1.946-4.347,4.346v39.717c0,2.4,1.946,4.346,4.347,4.346h114.828
			c2.4,0,4.346-1.946,4.346-4.346V31.388c0-2.4-1.946-4.346-4.346-4.346h-51.89H159.174z"/>
		<path class="st3" d="M223.863,76.951H109.036c-3.224,0-5.847-2.623-5.847-5.846V31.388c0-3.224,2.623-5.847,5.847-5.847h50.139
			c0.828,0,1.5,0.671,1.5,1.5c0,0.829-0.672,1.5-1.5,1.5h-50.139c-1.569,0-2.847,1.277-2.847,2.847v39.717
			c0,1.569,1.277,2.846,2.847,2.846h114.827c1.569,0,2.847-1.277,2.847-2.846V31.388c0-1.57-1.277-2.847-2.847-2.847h-51.89
			c-0.828,0-1.5-0.671-1.5-1.5c0-0.829,0.672-1.5,1.5-1.5h51.89c3.224,0,5.847,2.623,5.847,5.847v39.717
			C229.71,74.328,227.087,76.951,223.863,76.951z"/>
		<path class="st3" d="M146.309,66.442c-0.031,0-0.062-0.001-0.094-0.003c-0.482-0.03-0.922-0.291-1.178-0.702l-15.679-25.07
			l-9.979,21.005c-0.355,0.749-1.251,1.066-1.998,0.711c-0.748-0.355-1.066-1.25-0.711-1.999l11.153-23.479
			c0.234-0.495,0.721-0.822,1.268-0.854c0.565-0.027,1.069,0.238,1.358,0.702l16.019,25.615l9.83-12.071
			c0.437-0.536,1.184-0.705,1.809-0.407l13.311,6.344l11.355-13.77c0.276-0.335,0.685-0.534,1.119-0.545
			c0.432-0.019,0.853,0.167,1.145,0.487l14.456,15.807l15.219-7.341c0.744-0.359,1.643-0.047,2.002,0.699
			c0.36,0.746,0.047,1.643-0.699,2.003l-16.224,7.826c-0.599,0.29-1.312,0.149-1.758-0.339l-14.044-15.356l-11.002,13.341
			c-0.437,0.531-1.179,0.697-1.803,0.4l-13.304-6.34l-10.409,12.782C147.186,66.24,146.758,66.442,146.309,66.442z"/>
		<path class="st17" d="M237.344,221.115v16.87h-13v-13.02c0-0.82-0.68-1.5-1.5-1.5c-0.18,0-0.34,0.03-0.5,0.09v-2.44
			c0-6.53-3.35-12.3-8.43-15.66l2.34-3.11h2.33C228.924,202.344,237.344,210.765,237.344,221.115z"/>
		<path class="st10" d="M223.864,28.545h-15c1.57,0,2.85,1.27,2.85,2.84v20.94l3-1.45c0.74-0.36,1.64-0.05,2,0.7
			c0.36,0.74,0.05,1.64-0.7,2l-4.3,2.08v15.45c0,1.57-1.28,2.85-2.85,2.85h15c1.57,0,2.85-1.28,2.85-2.85v-39.72
			C226.714,29.815,225.434,28.545,223.864,28.545z"/>
	</g>
</g>
</svg>
